<mxfile host="app.diagrams.net" modified="2022-02-01T07:30:06.827Z" agent="5.0 (Windows NT 10.0; Win64; x64) AppleWebKit/537.36 (KHTML, like Gecko) Chrome/97.0.4692.71 Safari/537.36" etag="lPQTojLsALSARm7-3B7r" version="16.4.3" type="github">
  <diagram id="GwWN1pVUDdLghwZrit8f" name="Page-1">
    <mxGraphModel dx="782" dy="468" grid="1" gridSize="10" guides="1" tooltips="1" connect="1" arrows="1" fold="1" page="1" pageScale="1" pageWidth="850" pageHeight="1100" math="0" shadow="0">
      <root>
        <mxCell id="0" />
        <mxCell id="1" parent="0" />
        <mxCell id="T3a6LwRcXDjMifkzxQnk-1" value="Software Architecture Pattern/Design" style="text;html=1;strokeColor=#6c8ebf;fillColor=#dae8fc;align=center;verticalAlign=middle;whiteSpace=wrap;rounded=0;" vertex="1" parent="1">
          <mxGeometry x="310" y="50" width="250" height="30" as="geometry" />
        </mxCell>
        <mxCell id="T3a6LwRcXDjMifkzxQnk-2" value="Monolithic - Software Architecture" style="text;html=1;strokeColor=#6c8ebf;fillColor=#dae8fc;align=center;verticalAlign=middle;whiteSpace=wrap;rounded=0;" vertex="1" parent="1">
          <mxGeometry x="90" y="160" width="250" height="30" as="geometry" />
        </mxCell>
        <mxCell id="T3a6LwRcXDjMifkzxQnk-3" value="Service Oriented - Software Architecture" style="text;html=1;strokeColor=#6c8ebf;fillColor=#dae8fc;align=center;verticalAlign=middle;whiteSpace=wrap;rounded=0;" vertex="1" parent="1">
          <mxGeometry x="480" y="160" width="250" height="30" as="geometry" />
        </mxCell>
        <mxCell id="T3a6LwRcXDjMifkzxQnk-4" value="1. Tightly couple code. Code reusability is not present.&amp;nbsp;&lt;br&gt;2. Any changes in the system will cause more time for validation and release.&lt;br&gt;3. Any changes in the system, So complete system with be shutdown.&lt;br&gt;4. Frontend-Backend-Database are tightly coupled." style="text;html=1;strokeColor=#d6b656;fillColor=#fff2cc;align=left;verticalAlign=top;whiteSpace=wrap;rounded=0;" vertex="1" parent="1">
          <mxGeometry x="90" y="230" width="250" height="190" as="geometry" />
        </mxCell>
        <mxCell id="T3a6LwRcXDjMifkzxQnk-5" value="1. Loose couple Module/Service driven architecture and follow code reusability as dependencies.&amp;nbsp;&lt;br&gt;2. Frontend - (Backend+Database) are in 2 tiers architecture.&lt;br&gt;3. Database is the bottelnek for scalability." style="text;html=1;strokeColor=#d6b656;fillColor=#fff2cc;align=left;verticalAlign=top;whiteSpace=wrap;rounded=0;" vertex="1" parent="1">
          <mxGeometry x="480" y="230" width="250" height="190" as="geometry" />
        </mxCell>
        <mxCell id="T3a6LwRcXDjMifkzxQnk-20" value="" style="group" vertex="1" connectable="0" parent="1">
          <mxGeometry x="480" y="430" width="250" height="252" as="geometry" />
        </mxCell>
        <mxCell id="T3a6LwRcXDjMifkzxQnk-6" value="" style="rounded=1;whiteSpace=wrap;html=1;" vertex="1" parent="T3a6LwRcXDjMifkzxQnk-20">
          <mxGeometry y="52" width="250" height="70" as="geometry" />
        </mxCell>
        <mxCell id="T3a6LwRcXDjMifkzxQnk-7" value="Service-A" style="rounded=0;whiteSpace=wrap;html=1;fillColor=#f8cecc;strokeColor=#b85450;" vertex="1" parent="T3a6LwRcXDjMifkzxQnk-20">
          <mxGeometry x="6" y="77" width="70" height="30" as="geometry" />
        </mxCell>
        <mxCell id="T3a6LwRcXDjMifkzxQnk-8" value="Service-B" style="rounded=0;whiteSpace=wrap;html=1;fillColor=#f8cecc;strokeColor=#b85450;" vertex="1" parent="T3a6LwRcXDjMifkzxQnk-20">
          <mxGeometry x="81" y="77" width="80" height="28.75" as="geometry" />
        </mxCell>
        <mxCell id="T3a6LwRcXDjMifkzxQnk-9" value="Service-C ...." style="text;html=1;strokeColor=#b85450;fillColor=#f8cecc;align=center;verticalAlign=middle;whiteSpace=wrap;rounded=0;" vertex="1" parent="T3a6LwRcXDjMifkzxQnk-20">
          <mxGeometry x="167" y="77" width="80" height="30" as="geometry" />
        </mxCell>
        <mxCell id="T3a6LwRcXDjMifkzxQnk-10" value="Domain Driven Design" style="text;html=1;strokeColor=none;fillColor=none;align=center;verticalAlign=middle;whiteSpace=wrap;rounded=0;" vertex="1" parent="T3a6LwRcXDjMifkzxQnk-20">
          <mxGeometry x="46" y="57" width="150" height="20" as="geometry" />
        </mxCell>
        <mxCell id="T3a6LwRcXDjMifkzxQnk-11" value="DB" style="shape=cylinder3;whiteSpace=wrap;html=1;boundedLbl=1;backgroundOutline=1;size=15;" vertex="1" parent="T3a6LwRcXDjMifkzxQnk-20">
          <mxGeometry x="91" y="172" width="60" height="80" as="geometry" />
        </mxCell>
        <mxCell id="T3a6LwRcXDjMifkzxQnk-12" style="edgeStyle=orthogonalEdgeStyle;rounded=0;orthogonalLoop=1;jettySize=auto;html=1;entryX=0.145;entryY=0;entryDx=0;entryDy=4.35;entryPerimeter=0;" edge="1" parent="T3a6LwRcXDjMifkzxQnk-20" source="T3a6LwRcXDjMifkzxQnk-7" target="T3a6LwRcXDjMifkzxQnk-11">
          <mxGeometry relative="1" as="geometry">
            <Array as="points">
              <mxPoint x="41" y="162" />
              <mxPoint x="100" y="162" />
            </Array>
          </mxGeometry>
        </mxCell>
        <mxCell id="T3a6LwRcXDjMifkzxQnk-13" style="edgeStyle=orthogonalEdgeStyle;rounded=0;orthogonalLoop=1;jettySize=auto;html=1;entryX=0.5;entryY=0;entryDx=0;entryDy=0;entryPerimeter=0;" edge="1" parent="T3a6LwRcXDjMifkzxQnk-20" source="T3a6LwRcXDjMifkzxQnk-8" target="T3a6LwRcXDjMifkzxQnk-11">
          <mxGeometry relative="1" as="geometry" />
        </mxCell>
        <mxCell id="T3a6LwRcXDjMifkzxQnk-14" style="edgeStyle=orthogonalEdgeStyle;rounded=0;orthogonalLoop=1;jettySize=auto;html=1;entryX=0.855;entryY=0;entryDx=0;entryDy=4.35;entryPerimeter=0;" edge="1" parent="T3a6LwRcXDjMifkzxQnk-20" source="T3a6LwRcXDjMifkzxQnk-9" target="T3a6LwRcXDjMifkzxQnk-11">
          <mxGeometry relative="1" as="geometry">
            <Array as="points">
              <mxPoint x="207" y="162" />
              <mxPoint x="142" y="162" />
            </Array>
          </mxGeometry>
        </mxCell>
        <mxCell id="T3a6LwRcXDjMifkzxQnk-15" value="Signal Point Of Failure" style="text;html=1;strokeColor=#666666;fillColor=#f5f5f5;align=center;verticalAlign=middle;whiteSpace=wrap;rounded=0;fontColor=#333333;" vertex="1" parent="T3a6LwRcXDjMifkzxQnk-20">
          <mxGeometry x="10" y="137" width="230" height="15" as="geometry" />
        </mxCell>
        <mxCell id="T3a6LwRcXDjMifkzxQnk-19" style="edgeStyle=orthogonalEdgeStyle;rounded=0;orthogonalLoop=1;jettySize=auto;html=1;entryX=0.435;entryY=0;entryDx=0;entryDy=0;entryPerimeter=0;" edge="1" parent="T3a6LwRcXDjMifkzxQnk-20" source="T3a6LwRcXDjMifkzxQnk-16" target="T3a6LwRcXDjMifkzxQnk-6">
          <mxGeometry relative="1" as="geometry" />
        </mxCell>
        <mxCell id="T3a6LwRcXDjMifkzxQnk-16" value="Frontend" style="text;html=1;strokeColor=#666666;fillColor=#f5f5f5;align=center;verticalAlign=middle;whiteSpace=wrap;rounded=0;fontColor=#333333;" vertex="1" parent="T3a6LwRcXDjMifkzxQnk-20">
          <mxGeometry width="230" height="15" as="geometry" />
        </mxCell>
      </root>
    </mxGraphModel>
  </diagram>
</mxfile>
